# MagicaVoxel @ ephtracy

# material
mtllib Monster.mtl
usemtl palette

# normals
vn -1 0 0
vn 1 0 0
vn 0 0 1
vn 0 0 -1
vn 0 -1 0
vn 0 1 0

# texcoords
vt 0.341797 0.5
vt 0.373047 0.5
vt 0.646484 0.5
vt 0.841797 0.5
vt 0.962891 0.5
vt 0.974609 0.5
vt 0.990234 0.5
vt 0.994141 0.5

# verts
v -4 4 5
v -4 4 3
v -4 4 -0
v -4 4 -1
v -4 4 -4
v -4 5 5
v -4 5 3
v -4 5 -0
v -4 5 -1
v -4 5 -2
v -4 5 -4
v -4 6 -0
v -4 6 -1
v -4 6 -2
v -4 6 -3
v -4 7 -1
v -4 7 -2
v -4 8 -2
v -4 8 -3
v -3 6 -3
v -3 6 -4
v -3 8 2
v -3 8 1
v -3 8 -2
v -3 8 -3
v -3 8 -4
v -3 9 -2
v -3 9 -3
v -3 13 2
v -3 13 1
v -2 0 -1
v -2 0 -4
v -2 1 -1
v -2 1 -2
v -2 4 -4
v -2 4 -5
v -2 6 2
v -2 6 1
v -2 6 -2
v -2 6 -4
v -2 8 2
v -2 8 1
v -2 8 -1
v -2 8 -3
v -2 8 -4
v -2 9 -2
v -2 9 -3
v -2 10 -4
v -2 10 -5
v -2 11 -2
v -2 11 -4
v -2 12 1
v -2 12 -0
v -2 12 -1
v -2 13 2
v -2 13 1
v -2 14 2
v -2 14 1
v -2 15 1
v -2 15 -0
v -2 16 1
v -2 16 -0
v -2 17 1
v -2 17 -0
v -1 5 2
v -1 5 1
v -1 6 2
v -1 6 1
v -1 6 -1
v -1 7 -1
v -1 7 -2
v -1 8 1
v -1 8 -1
v -1 10 -1
v -1 10 -2
v -1 14 2
v -1 14 1
v -1 15 2
v -1 15 1
v 0 9 2
v 0 9 1
v 0 12 2
v 0 12 1
v 1 0 -1
v 1 0 -4
v 1 1 -1
v 1 1 -2
v 1 2 -2
v 1 2 -4
v 2 9 2
v 2 9 1
v 2 11 2
v 2 11 1
v 4 4 -0
v 4 4 -1
v 4 5 -1
v 4 5 -2
v 4 6 -0
v 4 6 -1
v 4 6 -2
v 4 7 -1
v 4 7 -2
v -3 4 5
v -3 4 3
v -3 4 -0
v -3 4 -1
v -3 4 -4
v -3 5 5
v -3 5 3
v -3 5 -0
v -3 5 -1
v -3 5 -2
v -3 5 -4
v -3 6 -0
v -3 6 -1
v -3 6 -2
v -3 7 -1
v -3 7 -2
v -1 9 2
v -1 9 1
v -1 12 2
v -1 12 1
v -1 13 1
v -1 13 -0
v -1 15 1
v -1 15 -0
v -1 16 1
v -1 16 -0
v -1 17 1
v -1 17 -0
v 0 0 -1
v 0 0 -4
v 0 1 -1
v 0 1 -2
v 0 2 -2
v 0 2 -4
v 1 9 2
v 1 9 1
v 1 11 2
v 1 11 1
v 1 14 2
v 1 14 1
v 1 15 2
v 1 15 1
v 2 5 2
v 2 5 1
v 2 6 2
v 2 6 1
v 2 6 -1
v 2 7 -1
v 2 7 -2
v 2 8 1
v 2 8 -1
v 2 10 -1
v 2 10 -2
v 2 12 1
v 2 12 -0
v 2 13 1
v 2 13 -0
v 3 0 -1
v 3 0 -4
v 3 1 -1
v 3 1 -2
v 3 4 -4
v 3 4 -5
v 3 6 2
v 3 6 1
v 3 6 -2
v 3 6 -4
v 3 8 1
v 3 8 -1
v 3 8 -3
v 3 8 -4
v 3 9 2
v 3 9 1
v 3 9 -2
v 3 9 -3
v 3 10 -4
v 3 10 -5
v 3 11 -2
v 3 11 -4
v 3 12 1
v 3 12 -1
v 3 13 2
v 3 13 1
v 3 14 2
v 3 14 1
v 4 6 -3
v 4 6 -4
v 4 8 -2
v 4 8 -3
v 4 8 -4
v 4 9 2
v 4 9 1
v 4 9 -2
v 4 9 -3
v 4 13 2
v 4 13 1
v 5 4 -0
v 5 4 -1
v 5 5 -1
v 5 5 -2
v 5 6 -0
v 5 6 -1
v 5 6 -2
v 5 6 -3
v 5 7 -1
v 5 7 -2
v 5 8 -2
v 5 8 -3
v -4 4 5
v -4 5 5
v -3 4 5
v -3 5 5
v -3 8 2
v -3 13 2
v -2 6 2
v -2 8 2
v -2 13 2
v -2 14 2
v -1 5 2
v -1 6 2
v -1 9 2
v -1 12 2
v -1 14 2
v -1 15 2
v 0 9 2
v 0 12 2
v 1 9 2
v 1 11 2
v 1 14 2
v 1 15 2
v 2 5 2
v 2 6 2
v 2 9 2
v 2 11 2
v 3 6 2
v 3 9 2
v 3 13 2
v 3 14 2
v 4 9 2
v 4 13 2
v -2 14 1
v -2 15 1
v -2 16 1
v -2 17 1
v -1 9 1
v -1 12 1
v -1 14 1
v -1 15 1
v -1 16 1
v -1 17 1
v 0 9 1
v 0 12 1
v 1 9 1
v 1 11 1
v 2 9 1
v 2 11 1
v -4 5 -0
v -4 6 -0
v -3 5 -0
v -3 6 -0
v 4 4 -0
v 4 6 -0
v 5 4 -0
v 5 6 -0
v -4 6 -1
v -4 7 -1
v -3 6 -1
v -3 7 -1
v -2 0 -1
v -2 1 -1
v 0 0 -1
v 0 1 -1
v 1 0 -1
v 1 1 -1
v 3 0 -1
v 3 1 -1
v 4 6 -1
v 4 7 -1
v 5 6 -1
v 5 7 -1
v -4 7 -2
v -4 8 -2
v -3 6 -2
v -3 7 -2
v -3 8 -2
v -3 9 -2
v -2 1 -2
v -2 6 -2
v -2 9 -2
v -2 11 -2
v -1 7 -2
v -1 10 -2
v 0 1 -2
v 0 2 -2
v 1 1 -2
v 1 2 -2
v 2 7 -2
v 2 10 -2
v 3 1 -2
v 3 6 -2
v 3 9 -2
v 3 11 -2
v 4 6 -2
v 4 7 -2
v 4 8 -2
v 4 9 -2
v 5 7 -2
v 5 8 -2
v -3 8 1
v -3 13 1
v -2 6 1
v -2 8 1
v -2 12 1
v -2 13 1
v -1 5 1
v -1 6 1
v -1 8 1
v -1 13 1
v -1 15 1
v 1 14 1
v 1 15 1
v 2 5 1
v 2 6 1
v 2 8 1
v 2 12 1
v 2 13 1
v 3 6 1
v 3 8 1
v 3 9 1
v 3 12 1
v 3 13 1
v 3 14 1
v 4 9 1
v 4 13 1
v -2 12 -0
v -2 15 -0
v -2 16 -0
v -2 17 -0
v -1 12 -0
v -1 13 -0
v -1 15 -0
v -1 16 -0
v -1 17 -0
v 2 12 -0
v 2 13 -0
v -2 8 -1
v -2 12 -1
v -1 6 -1
v -1 7 -1
v -1 8 -1
v -1 10 -1
v 2 6 -1
v 2 7 -1
v 2 8 -1
v 2 10 -1
v 3 8 -1
v 3 12 -1
v 4 4 -1
v 4 5 -1
v 5 4 -1
v 5 5 -1
v -4 5 -2
v -4 6 -2
v -3 5 -2
v -3 6 -2
v 4 5 -2
v 4 6 -2
v 5 5 -2
v 5 6 -2
v -4 6 -3
v -4 8 -3
v -3 6 -3
v -3 8 -3
v -3 9 -3
v -2 8 -3
v -2 9 -3
v 3 8 -3
v 3 9 -3
v 4 6 -3
v 4 8 -3
v 4 9 -3
v 5 6 -3
v 5 8 -3
v -4 4 -4
v -4 5 -4
v -3 4 -4
v -3 5 -4
v -3 6 -4
v -3 8 -4
v -2 0 -4
v -2 4 -4
v -2 6 -4
v -2 8 -4
v -2 10 -4
v -2 11 -4
v 0 0 -4
v 0 2 -4
v 1 0 -4
v 1 2 -4
v 3 0 -4
v 3 4 -4
v 3 6 -4
v 3 8 -4
v 3 10 -4
v 3 11 -4
v 4 6 -4
v 4 8 -4
v -2 4 -5
v -2 10 -5
v 3 4 -5
v 3 10 -5
v -2 0 -1
v 0 0 -1
v 1 0 -1
v 3 0 -1
v -2 0 -4
v 0 0 -4
v 1 0 -4
v 3 0 -4
v 0 2 -2
v 1 2 -2
v 0 2 -4
v 1 2 -4
v -4 4 5
v -3 4 5
v -4 4 3
v -3 4 3
v -4 4 -0
v -3 4 -0
v 4 4 -0
v 5 4 -0
v -4 4 -1
v -3 4 -1
v 4 4 -1
v 5 4 -1
v -4 4 -4
v -3 4 -4
v -2 4 -4
v 3 4 -4
v -2 4 -5
v 3 4 -5
v -1 5 2
v 2 5 2
v -1 5 1
v 2 5 1
v 4 5 -1
v 5 5 -1
v 4 5 -2
v 5 5 -2
v -2 6 2
v -1 6 2
v 2 6 2
v 3 6 2
v -2 6 1
v -1 6 1
v 2 6 1
v 3 6 1
v -1 6 -1
v 2 6 -1
v -4 6 -2
v -3 6 -2
v -2 6 -2
v 3 6 -2
v 4 6 -2
v 5 6 -2
v -4 6 -3
v -3 6 -3
v 4 6 -3
v 5 6 -3
v -3 6 -4
v -2 6 -4
v 3 6 -4
v 4 6 -4
v -1 7 -1
v 2 7 -1
v -1 7 -2
v 2 7 -2
v -3 8 2
v -2 8 2
v -3 8 1
v -2 8 1
v -1 8 1
v 2 8 1
v 3 8 1
v -2 8 -1
v -1 8 -1
v 2 8 -1
v 3 8 -1
v 3 9 2
v 4 9 2
v 3 9 1
v 4 9 1
v 1 11 2
v 2 11 2
v 1 11 1
v 2 11 1
v -1 12 2
v 0 12 2
v -1 12 1
v 0 12 1
v -2 1 -1
v 0 1 -1
v 1 1 -1
v 3 1 -1
v -2 1 -2
v 0 1 -2
v 1 1 -2
v 3 1 -2
v -4 5 5
v -3 5 5
v -4 5 3
v -3 5 3
v -4 5 -0
v -3 5 -0
v -4 5 -2
v -3 5 -2
v -4 5 -4
v -3 5 -4
v -4 6 -0
v -3 6 -0
v 4 6 -0
v 5 6 -0
v -4 6 -1
v -3 6 -1
v 4 6 -1
v 5 6 -1
v -4 7 -1
v -3 7 -1
v 4 7 -1
v 5 7 -1
v -4 7 -2
v -3 7 -2
v 4 7 -2
v 5 7 -2
v -4 8 -2
v -3 8 -2
v 4 8 -2
v 5 8 -2
v -4 8 -3
v -3 8 -3
v -2 8 -3
v 3 8 -3
v 4 8 -3
v 5 8 -3
v -3 8 -4
v -2 8 -4
v 3 8 -4
v 4 8 -4
v -1 9 2
v 0 9 2
v 1 9 2
v 2 9 2
v -1 9 1
v 0 9 1
v 1 9 1
v 2 9 1
v -3 9 -2
v -2 9 -2
v 3 9 -2
v 4 9 -2
v -3 9 -3
v -2 9 -3
v 3 9 -3
v 4 9 -3
v -1 10 -1
v 2 10 -1
v -1 10 -2
v 2 10 -2
v -2 10 -4
v 3 10 -4
v -2 10 -5
v 3 10 -5
v -2 11 -2
v 3 11 -2
v -2 11 -4
v 3 11 -4
v 2 12 1
v 3 12 1
v -2 12 -0
v -1 12 -0
v 2 12 -0
v -2 12 -1
v 3 12 -1
v -3 13 2
v -2 13 2
v 3 13 2
v 4 13 2
v -3 13 1
v -2 13 1
v -1 13 1
v 2 13 1
v 3 13 1
v 4 13 1
v -1 13 -0
v 2 13 -0
v -2 14 2
v -1 14 2
v 1 14 2
v 3 14 2
v -2 14 1
v -1 14 1
v 1 14 1
v 3 14 1
v -1 15 2
v 1 15 2
v -1 15 1
v 1 15 1
v -2 17 1
v -1 17 1
v -2 17 -0
v -1 17 -0

# faces
f 6/6/1 2/6/1 1/6/1
f 7/2/1 3/2/1 2/2/1
f 7/6/1 2/6/1 6/6/1
f 8/3/1 4/3/1 3/3/1
f 8/2/1 3/2/1 7/2/1
f 9/2/1 5/2/1 4/2/1
f 9/3/1 4/3/1 8/3/1
f 10/2/1 5/2/1 9/2/1
f 11/2/1 5/2/1 10/2/1
f 12/3/1 10/3/1 9/3/1
f 12/3/1 9/3/1 8/3/1
f 13/3/1 10/3/1 12/3/1
f 14/3/1 10/3/1 13/3/1
f 16/3/1 15/3/1 14/3/1
f 16/3/1 14/3/1 13/3/1
f 17/3/1 15/3/1 16/3/1
f 18/3/1 15/3/1 17/3/1
f 19/3/1 15/3/1 18/3/1
f 25/3/1 21/3/1 20/3/1
f 26/3/1 21/3/1 25/3/1
f 27/3/1 25/3/1 24/3/1
f 28/3/1 25/3/1 27/3/1
f 29/1/1 23/1/1 22/1/1
f 30/1/1 23/1/1 29/1/1
f 33/3/1 32/3/1 31/3/1
f 34/3/1 32/3/1 33/3/1
f 35/3/1 32/3/1 34/3/1
f 39/3/1 35/3/1 34/3/1
f 39/3/1 36/3/1 35/3/1
f 40/3/1 36/3/1 39/3/1
f 41/1/1 38/1/1 37/1/1
f 42/1/1 38/1/1 41/1/1
f 45/3/1 36/3/1 40/3/1
f 47/3/1 45/3/1 44/3/1
f 48/3/1 36/3/1 45/3/1
f 48/3/1 47/3/1 46/3/1
f 48/3/1 45/3/1 47/3/1
f 49/3/1 36/3/1 48/3/1
f 50/3/1 48/3/1 46/3/1
f 51/3/1 48/3/1 50/3/1
f 52/3/1 43/3/1 42/3/1
f 53/3/1 43/3/1 52/3/1
f 54/3/1 43/3/1 53/3/1
f 56/5/1 53/5/1 52/5/1
f 57/1/1 56/1/1 55/1/1
f 58/5/1 53/5/1 56/5/1
f 58/1/1 56/1/1 57/1/1
f 59/5/1 53/5/1 58/5/1
f 60/5/1 53/5/1 59/5/1
f 61/4/1 60/4/1 59/4/1
f 62/4/1 60/4/1 61/4/1
f 63/5/1 62/5/1 61/5/1
f 64/5/1 62/5/1 63/5/1
f 67/1/1 66/1/1 65/1/1
f 68/1/1 66/1/1 67/1/1
f 70/3/1 69/3/1 68/3/1
f 72/3/1 70/3/1 68/3/1
f 72/3/1 71/3/1 70/3/1
f 73/3/1 71/3/1 72/3/1
f 74/3/1 71/3/1 73/3/1
f 75/3/1 71/3/1 74/3/1
f 78/1/1 77/1/1 76/1/1
f 79/1/1 77/1/1 78/1/1
f 82/1/1 81/1/1 80/1/1
f 83/1/1 81/1/1 82/1/1
f 86/3/1 85/3/1 84/3/1
f 87/3/1 85/3/1 86/3/1
f 88/3/1 85/3/1 87/3/1
f 89/3/1 85/3/1 88/3/1
f 92/1/1 91/1/1 90/1/1
f 93/1/1 91/1/1 92/1/1
f 96/3/1 95/3/1 94/3/1
f 98/3/1 96/3/1 94/3/1
f 98/3/1 97/3/1 96/3/1
f 99/3/1 97/3/1 98/3/1
f 100/3/1 97/3/1 99/3/1
f 101/3/1 100/3/1 99/3/1
f 102/3/1 100/3/1 101/3/1
f 103/6/2 104/6/2 108/6/2
f 104/2/2 105/2/2 109/2/2
f 108/6/2 104/6/2 109/6/2
f 105/3/2 106/3/2 110/3/2
f 109/2/2 105/2/2 110/2/2
f 106/2/2 107/2/2 111/2/2
f 110/3/2 106/3/2 111/3/2
f 111/2/2 107/2/2 112/2/2
f 112/2/2 107/2/2 113/2/2
f 111/3/2 112/3/2 114/3/2
f 110/3/2 111/3/2 114/3/2
f 114/3/2 112/3/2 115/3/2
f 115/3/2 112/3/2 116/3/2
f 115/3/2 116/3/2 117/3/2
f 117/3/2 116/3/2 118/3/2
f 119/1/2 120/1/2 121/1/2
f 121/1/2 120/1/2 122/1/2
f 123/5/2 124/5/2 125/5/2
f 125/5/2 124/5/2 126/5/2
f 125/4/2 126/4/2 127/4/2
f 127/4/2 126/4/2 128/4/2
f 127/5/2 128/5/2 129/5/2
f 129/5/2 128/5/2 130/5/2
f 131/3/2 132/3/2 133/3/2
f 133/3/2 132/3/2 134/3/2
f 134/3/2 132/3/2 135/3/2
f 135/3/2 132/3/2 136/3/2
f 137/1/2 138/1/2 139/1/2
f 139/1/2 138/1/2 140/1/2
f 141/1/2 142/1/2 143/1/2
f 143/1/2 142/1/2 144/1/2
f 145/1/2 146/1/2 147/1/2
f 147/1/2 146/1/2 148/1/2
f 148/3/2 149/3/2 150/3/2
f 148/3/2 150/3/2 152/3/2
f 150/3/2 151/3/2 152/3/2
f 152/3/2 151/3/2 153/3/2
f 153/3/2 151/3/2 154/3/2
f 154/3/2 151/3/2 155/3/2
f 156/3/2 157/3/2 158/3/2
f 158/3/2 157/3/2 159/3/2
f 160/3/2 161/3/2 162/3/2
f 162/3/2 161/3/2 163/3/2
f 163/3/2 161/3/2 164/3/2
f 163/3/2 164/3/2 168/3/2
f 164/3/2 165/3/2 168/3/2
f 168/3/2 165/3/2 169/3/2
f 166/1/2 167/1/2 170/1/2
f 169/3/2 165/3/2 173/3/2
f 166/1/2 170/1/2 174/1/2
f 170/3/2 171/3/2 175/3/2
f 174/1/2 170/1/2 175/1/2
f 172/3/2 173/3/2 177/3/2
f 173/3/2 165/3/2 178/3/2
f 176/3/2 177/3/2 178/3/2
f 177/3/2 173/3/2 178/3/2
f 178/3/2 165/3/2 179/3/2
f 176/3/2 178/3/2 180/3/2
f 180/3/2 178/3/2 181/3/2
f 175/3/2 171/3/2 182/3/2
f 182/3/2 171/3/2 183/3/2
f 184/1/2 185/1/2 186/1/2
f 186/1/2 185/1/2 187/1/2
f 188/3/2 189/3/2 191/3/2
f 191/3/2 189/3/2 192/3/2
f 190/3/2 191/3/2 195/3/2
f 195/3/2 191/3/2 196/3/2
f 193/1/2 194/1/2 197/1/2
f 197/1/2 194/1/2 198/1/2
f 199/3/2 200/3/2 201/3/2
f 199/3/2 201/3/2 203/3/2
f 201/3/2 202/3/2 203/3/2
f 203/3/2 202/3/2 204/3/2
f 204/3/2 202/3/2 205/3/2
f 205/3/2 206/3/2 207/3/2
f 204/3/2 205/3/2 207/3/2
f 207/3/2 206/3/2 208/3/2
f 208/3/2 206/3/2 209/3/2
f 209/3/2 206/3/2 210/3/2
f 213/6/3 212/6/3 211/6/3
f 214/6/3 212/6/3 213/6/3
f 218/1/3 216/1/3 215/1/3
f 219/1/3 216/1/3 218/1/3
f 222/1/3 218/1/3 217/1/3
f 222/1/3 220/1/3 219/1/3
f 222/1/3 219/1/3 218/1/3
f 223/1/3 220/1/3 222/1/3
f 224/1/3 220/1/3 223/1/3
f 225/1/3 220/1/3 224/1/3
f 227/1/3 222/1/3 221/1/3
f 227/1/3 223/1/3 222/1/3
f 228/1/3 226/1/3 225/1/3
f 228/1/3 225/1/3 224/1/3
f 229/1/3 227/1/3 221/1/3
f 229/1/3 228/1/3 227/1/3
f 230/1/3 228/1/3 229/1/3
f 231/1/3 226/1/3 228/1/3
f 231/1/3 228/1/3 230/1/3
f 232/1/3 226/1/3 231/1/3
f 233/1/3 229/1/3 221/1/3
f 234/1/3 229/1/3 233/1/3
f 235/1/3 229/1/3 234/1/3
f 236/1/3 231/1/3 230/1/3
f 237/1/3 235/1/3 234/1/3
f 237/1/3 236/1/3 235/1/3
f 238/1/3 236/1/3 237/1/3
f 239/1/3 231/1/3 236/1/3
f 239/1/3 236/1/3 238/1/3
f 240/1/3 231/1/3 239/1/3
f 241/1/3 239/1/3 238/1/3
f 242/1/3 239/1/3 241/1/3
f 249/5/3 244/5/3 243/5/3
f 250/4/3 245/4/3 244/4/3
f 250/5/3 244/5/3 249/5/3
f 251/5/3 246/5/3 245/5/3
f 251/4/3 245/4/3 250/4/3
f 252/5/3 246/5/3 251/5/3
f 253/8/3 248/8/3 247/8/3
f 254/8/3 248/8/3 253/8/3
f 257/8/3 256/8/3 255/8/3
f 258/8/3 256/8/3 257/8/3
f 261/3/3 260/3/3 259/3/3
f 262/3/3 260/3/3 261/3/3
f 265/3/3 264/3/3 263/3/3
f 266/3/3 264/3/3 265/3/3
f 269/3/3 268/3/3 267/3/3
f 270/3/3 268/3/3 269/3/3
f 273/3/3 272/3/3 271/3/3
f 274/3/3 272/3/3 273/3/3
f 277/3/3 276/3/3 275/3/3
f 278/3/3 276/3/3 277/3/3
f 281/3/3 280/3/3 279/3/3
f 282/3/3 280/3/3 281/3/3
f 286/3/3 284/3/3 283/3/3
f 287/3/3 284/3/3 286/3/3
f 290/3/3 286/3/3 285/3/3
f 290/3/3 288/3/3 287/3/3
f 290/3/3 287/3/3 286/3/3
f 291/3/3 288/3/3 290/3/3
f 293/3/3 290/3/3 289/3/3
f 293/3/3 292/3/3 291/3/3
f 293/3/3 291/3/3 290/3/3
f 294/3/3 292/3/3 293/3/3
f 295/3/3 293/3/3 289/3/3
f 296/3/3 293/3/3 295/3/3
f 298/3/3 293/3/3 296/3/3
f 299/3/3 293/3/3 298/3/3
f 299/3/3 298/3/3 297/3/3
f 300/3/3 292/3/3 294/3/3
f 301/3/3 299/3/3 297/3/3
f 301/3/3 300/3/3 299/3/3
f 302/3/3 300/3/3 301/3/3
f 303/3/3 300/3/3 302/3/3
f 304/3/3 292/3/3 300/3/3
f 304/3/3 300/3/3 303/3/3
f 305/3/3 303/3/3 302/3/3
f 306/3/3 303/3/3 305/3/3
f 307/3/3 303/3/3 306/3/3
f 308/3/3 303/3/3 307/3/3
f 309/3/3 307/3/3 306/3/3
f 310/3/3 307/3/3 309/3/3
f 311/1/4 312/1/4 314/1/4
f 314/1/4 312/1/4 315/1/4
f 315/1/4 312/1/4 316/1/4
f 313/1/4 314/1/4 318/1/4
f 318/1/4 314/1/4 319/1/4
f 320/1/4 321/1/4 322/1/4
f 322/1/4 321/1/4 323/1/4
f 317/1/4 318/1/4 324/1/4
f 324/1/4 318/1/4 325/1/4
f 320/1/4 322/1/4 328/1/4
f 325/1/4 326/1/4 329/1/4
f 329/1/4 326/1/4 330/1/4
f 327/1/4 328/1/4 332/1/4
f 328/1/4 322/1/4 333/1/4
f 332/1/4 328/1/4 333/1/4
f 333/1/4 322/1/4 334/1/4
f 331/1/4 332/1/4 335/1/4
f 332/1/4 333/1/4 335/1/4
f 335/1/4 333/1/4 336/1/4
f 337/5/4 338/5/4 341/5/4
f 341/5/4 338/5/4 342/5/4
f 338/4/4 339/4/4 343/4/4
f 342/5/4 338/5/4 343/5/4
f 339/5/4 340/5/4 344/5/4
f 343/4/4 339/4/4 344/4/4
f 344/5/4 340/5/4 345/5/4
f 341/3/4 342/3/4 346/3/4
f 346/3/4 342/3/4 347/3/4
f 348/3/4 349/3/4 352/3/4
f 352/3/4 349/3/4 353/3/4
f 350/3/4 351/3/4 354/3/4
f 354/3/4 351/3/4 355/3/4
f 353/3/4 349/3/4 357/3/4
f 356/3/4 357/3/4 358/3/4
f 357/3/4 349/3/4 359/3/4
f 358/3/4 357/3/4 359/3/4
f 360/3/4 361/3/4 362/3/4
f 362/3/4 361/3/4 363/3/4
f 364/3/4 365/3/4 366/3/4
f 366/3/4 365/3/4 367/3/4
f 368/3/4 369/3/4 370/3/4
f 370/3/4 369/3/4 371/3/4
f 372/3/4 373/3/4 374/3/4
f 374/3/4 373/3/4 375/3/4
f 375/3/4 376/3/4 377/3/4
f 377/3/4 376/3/4 378/3/4
f 379/3/4 380/3/4 382/3/4
f 382/3/4 380/3/4 383/3/4
f 381/3/4 382/3/4 384/3/4
f 384/3/4 382/3/4 385/3/4
f 386/2/4 387/2/4 388/2/4
f 388/2/4 387/2/4 389/2/4
f 390/3/4 391/3/4 394/3/4
f 394/3/4 391/3/4 395/3/4
f 392/3/4 393/3/4 398/3/4
f 398/3/4 393/3/4 399/3/4
f 399/3/4 393/3/4 401/3/4
f 400/3/4 401/3/4 402/3/4
f 401/3/4 393/3/4 403/3/4
f 402/3/4 401/3/4 403/3/4
f 396/3/4 397/3/4 406/3/4
f 406/3/4 397/3/4 407/3/4
f 404/3/4 405/3/4 408/3/4
f 408/3/4 405/3/4 409/3/4
f 410/3/4 411/3/4 412/3/4
f 412/3/4 411/3/4 413/3/4
f 418/3/5 415/3/5 414/3/5
f 419/3/5 415/3/5 418/3/5
f 420/3/5 417/3/5 416/3/5
f 421/3/5 417/3/5 420/3/5
f 424/3/5 423/3/5 422/3/5
f 425/3/5 423/3/5 424/3/5
f 428/6/5 427/6/5 426/6/5
f 429/6/5 427/6/5 428/6/5
f 430/2/5 429/2/5 428/2/5
f 431/2/5 429/2/5 430/2/5
f 434/3/5 431/3/5 430/3/5
f 435/3/5 431/3/5 434/3/5
f 436/3/5 433/3/5 432/3/5
f 437/3/5 433/3/5 436/3/5
f 438/2/5 435/2/5 434/2/5
f 439/2/5 435/2/5 438/2/5
f 442/3/5 441/3/5 440/3/5
f 443/3/5 441/3/5 442/3/5
f 446/1/5 445/1/5 444/1/5
f 447/1/5 445/1/5 446/1/5
f 450/3/5 449/3/5 448/3/5
f 451/3/5 449/3/5 450/3/5
f 456/1/5 453/1/5 452/1/5
f 457/1/5 453/1/5 456/1/5
f 458/1/5 455/1/5 454/1/5
f 459/1/5 455/1/5 458/1/5
f 460/3/5 458/3/5 457/3/5
f 461/3/5 458/3/5 460/3/5
f 468/3/5 463/3/5 462/3/5
f 468/3/5 464/3/5 463/3/5
f 469/3/5 464/3/5 468/3/5
f 470/3/5 467/3/5 466/3/5
f 470/3/5 466/3/5 465/3/5
f 471/3/5 467/3/5 470/3/5
f 472/3/5 464/3/5 469/3/5
f 473/3/5 464/3/5 472/3/5
f 474/3/5 470/3/5 465/3/5
f 475/3/5 470/3/5 474/3/5
f 478/3/5 477/3/5 476/3/5
f 479/3/5 477/3/5 478/3/5
f 482/1/5 481/1/5 480/1/5
f 483/1/5 481/1/5 482/1/5
f 487/3/5 484/3/5 483/3/5
f 488/3/5 484/3/5 487/3/5
f 489/3/5 486/3/5 485/3/5
f 490/3/5 486/3/5 489/3/5
f 493/1/5 492/1/5 491/1/5
f 494/1/5 492/1/5 493/1/5
f 497/1/5 496/1/5 495/1/5
f 498/1/5 496/1/5 497/1/5
f 501/1/5 500/1/5 499/1/5
f 502/1/5 500/1/5 501/1/5
f 503/3/6 504/3/6 507/3/6
f 507/3/6 504/3/6 508/3/6
f 505/3/6 506/3/6 509/3/6
f 509/3/6 506/3/6 510/3/6
f 511/6/6 512/6/6 513/6/6
f 513/6/6 512/6/6 514/6/6
f 513/2/6 514/2/6 515/2/6
f 515/2/6 514/2/6 516/2/6
f 517/2/6 518/2/6 519/2/6
f 519/2/6 518/2/6 520/2/6
f 521/3/6 522/3/6 525/3/6
f 525/3/6 522/3/6 526/3/6
f 523/3/6 524/3/6 527/3/6
f 527/3/6 524/3/6 528/3/6
f 529/3/6 530/3/6 533/3/6
f 533/3/6 530/3/6 534/3/6
f 531/3/6 532/3/6 535/3/6
f 535/3/6 532/3/6 536/3/6
f 537/3/6 538/3/6 541/3/6
f 541/3/6 538/3/6 542/3/6
f 539/3/6 540/3/6 545/3/6
f 545/3/6 540/3/6 546/3/6
f 542/3/6 543/3/6 547/3/6
f 547/3/6 543/3/6 548/3/6
f 544/3/6 545/3/6 549/3/6
f 549/3/6 545/3/6 550/3/6
f 551/1/6 552/1/6 555/1/6
f 555/1/6 552/1/6 556/1/6
f 553/1/6 554/1/6 557/1/6
f 557/1/6 554/1/6 558/1/6
f 559/3/6 560/3/6 563/3/6
f 563/3/6 560/3/6 564/3/6
f 561/3/6 562/3/6 565/3/6
f 565/3/6 562/3/6 566/3/6
f 567/3/6 568/3/6 569/3/6
f 569/3/6 568/3/6 570/3/6
f 571/3/6 572/3/6 573/3/6
f 573/3/6 572/3/6 574/3/6
f 575/3/6 576/3/6 577/3/6
f 577/3/6 576/3/6 578/3/6
f 579/3/6 580/3/6 583/3/6
f 581/3/6 582/3/6 584/3/6
f 582/3/6 583/3/6 584/3/6
f 583/3/6 580/3/6 585/3/6
f 584/3/6 583/3/6 585/3/6
f 586/1/6 587/1/6 590/1/6
f 590/1/6 587/1/6 591/1/6
f 588/1/6 589/1/6 594/1/6
f 594/1/6 589/1/6 595/1/6
f 592/3/6 593/3/6 596/3/6
f 596/3/6 593/3/6 597/3/6
f 598/1/6 599/1/6 602/1/6
f 602/1/6 599/1/6 603/1/6
f 600/1/6 601/1/6 604/1/6
f 604/1/6 601/1/6 605/1/6
f 606/1/6 607/1/6 608/1/6
f 608/1/6 607/1/6 609/1/6
f 610/5/6 611/5/6 612/5/6
f 612/5/6 611/5/6 613/5/6
