# MagicaVoxel @ ephtracy

# material
mtllib Rifle.mtl
usemtl palette

# normals
vn -1 0 0
vn 1 0 0
vn 0 0 1
vn 0 0 -1
vn 0 -1 0
vn 0 1 0

# texcoords
vt 0.958984 0.5
vt 0.986328 0.5

# verts
v -20 8 -8
v -20 8 -20
v -20 14 -8
v -20 14 -20
v -19 8 14
v -19 8 -8
v -19 9 20
v -19 9 14
v -19 10 19
v -19 10 18
v -19 10 17
v -19 10 16
v -19 10 15
v -19 10 14
v -19 11 19
v -19 11 18
v -19 11 17
v -19 11 16
v -19 11 15
v -19 11 14
v -19 12 20
v -19 12 14
v -19 13 14
v -19 13 -8
v -18 3 -1
v -18 3 -8
v -18 8 20
v -18 8 14
v -18 8 -1
v -18 8 -8
v -18 9 20
v -18 9 14
v -18 12 20
v -18 12 14
v -18 13 20
v -18 13 14
v -18 13 12
v -18 14 14
v -18 14 12
v -17 14 14
v -17 14 13
v -17 15 14
v -17 15 13
v -16 8 19
v -16 8 18
v -16 8 17
v -16 8 16
v -16 8 15
v -16 8 14
v -16 9 19
v -16 9 18
v -16 9 17
v -16 9 16
v -16 9 15
v -16 9 14
v -16 12 19
v -16 12 18
v -16 12 17
v -16 12 16
v -16 12 15
v -16 12 14
v -16 13 19
v -16 13 18
v -16 13 17
v -16 13 16
v -16 13 15
v -16 13 14
v -15 9 20
v -15 9 14
v -15 10 19
v -15 10 18
v -15 10 17
v -15 10 16
v -15 10 15
v -15 10 14
v -15 11 19
v -15 11 18
v -15 11 17
v -15 11 16
v -15 11 15
v -15 11 14
v -15 12 20
v -15 12 14
v -18 9 20
v -18 9 14
v -18 10 19
v -18 10 18
v -18 10 17
v -18 10 16
v -18 10 15
v -18 10 14
v -18 11 19
v -18 11 18
v -18 11 17
v -18 11 16
v -18 11 15
v -18 11 14
v -18 12 20
v -18 12 14
v -17 8 19
v -17 8 18
v -17 8 17
v -17 8 16
v -17 8 15
v -17 8 14
v -17 9 19
v -17 9 18
v -17 9 17
v -17 9 16
v -17 9 15
v -17 9 14
v -17 12 19
v -17 12 18
v -17 12 17
v -17 12 16
v -17 12 15
v -17 12 14
v -17 13 19
v -17 13 18
v -17 13 17
v -17 13 16
v -17 13 15
v -17 13 14
v -16 14 14
v -16 14 13
v -16 15 14
v -16 15 13
v -15 3 -1
v -15 3 -8
v -15 8 20
v -15 8 14
v -15 8 -1
v -15 8 -8
v -15 9 20
v -15 9 14
v -15 10 -2
v -15 10 -7
v -15 11 -2
v -15 11 -7
v -15 12 20
v -15 12 14
v -15 13 20
v -15 13 14
v -15 13 12
v -15 14 14
v -15 14 12
v -14 8 14
v -14 8 -8
v -14 9 20
v -14 9 14
v -14 10 19
v -14 10 18
v -14 10 17
v -14 10 16
v -14 10 15
v -14 10 14
v -14 10 -2
v -14 10 -7
v -14 11 19
v -14 11 18
v -14 11 17
v -14 11 16
v -14 11 15
v -14 11 14
v -14 11 -2
v -14 11 -7
v -14 12 20
v -14 12 14
v -14 13 14
v -14 13 -8
v -13 8 -8
v -13 8 -20
v -13 14 -8
v -13 14 -20
v -19 9 20
v -19 12 20
v -18 8 20
v -18 9 20
v -18 12 20
v -18 13 20
v -15 8 20
v -15 9 20
v -15 12 20
v -15 13 20
v -14 9 20
v -14 12 20
v -19 10 18
v -19 11 18
v -18 10 18
v -18 11 18
v -17 8 18
v -17 9 18
v -17 12 18
v -17 13 18
v -16 8 18
v -16 9 18
v -16 12 18
v -16 13 18
v -15 10 18
v -15 11 18
v -14 10 18
v -14 11 18
v -19 10 16
v -19 11 16
v -18 10 16
v -18 11 16
v -17 8 16
v -17 9 16
v -17 12 16
v -17 13 16
v -16 8 16
v -16 9 16
v -16 12 16
v -16 13 16
v -15 10 16
v -15 11 16
v -14 10 16
v -14 11 16
v -19 8 14
v -19 9 14
v -19 10 14
v -19 11 14
v -19 12 14
v -19 13 14
v -18 8 14
v -18 9 14
v -18 10 14
v -18 11 14
v -18 12 14
v -18 13 14
v -18 14 14
v -17 8 14
v -17 9 14
v -17 12 14
v -17 13 14
v -17 14 14
v -17 15 14
v -16 8 14
v -16 9 14
v -16 12 14
v -16 13 14
v -16 14 14
v -16 15 14
v -15 8 14
v -15 9 14
v -15 10 14
v -15 11 14
v -15 12 14
v -15 13 14
v -15 14 14
v -14 8 14
v -14 9 14
v -14 10 14
v -14 11 14
v -14 12 14
v -14 13 14
v -18 3 -1
v -18 8 -1
v -15 3 -1
v -15 8 -1
v -15 10 -7
v -15 11 -7
v -14 10 -7
v -14 11 -7
v -20 8 -8
v -20 14 -8
v -19 8 -8
v -19 13 -8
v -14 8 -8
v -14 13 -8
v -13 8 -8
v -13 14 -8
v -19 10 19
v -19 11 19
v -18 10 19
v -18 11 19
v -17 8 19
v -17 9 19
v -17 12 19
v -17 13 19
v -16 8 19
v -16 9 19
v -16 12 19
v -16 13 19
v -15 10 19
v -15 11 19
v -14 10 19
v -14 11 19
v -19 10 17
v -19 11 17
v -18 10 17
v -18 11 17
v -17 8 17
v -17 9 17
v -17 12 17
v -17 13 17
v -16 8 17
v -16 9 17
v -16 12 17
v -16 13 17
v -15 10 17
v -15 11 17
v -14 10 17
v -14 11 17
v -19 10 15
v -19 11 15
v -18 10 15
v -18 11 15
v -17 8 15
v -17 9 15
v -17 12 15
v -17 13 15
v -16 8 15
v -16 9 15
v -16 12 15
v -16 13 15
v -15 10 15
v -15 11 15
v -14 10 15
v -14 11 15
v -17 14 13
v -17 15 13
v -16 14 13
v -16 15 13
v -18 13 12
v -18 14 12
v -15 13 12
v -15 14 12
v -15 10 -2
v -15 11 -2
v -14 10 -2
v -14 11 -2
v -18 3 -8
v -18 8 -8
v -15 3 -8
v -15 8 -8
v -20 8 -20
v -20 14 -20
v -13 8 -20
v -13 14 -20
v -18 3 -1
v -15 3 -1
v -18 3 -8
v -15 3 -8
v -18 8 20
v -15 8 20
v -17 8 19
v -16 8 19
v -17 8 18
v -16 8 18
v -17 8 17
v -16 8 17
v -17 8 16
v -16 8 16
v -17 8 15
v -16 8 15
v -19 8 14
v -18 8 14
v -17 8 14
v -16 8 14
v -15 8 14
v -14 8 14
v -18 8 -1
v -15 8 -1
v -20 8 -8
v -19 8 -8
v -18 8 -8
v -15 8 -8
v -14 8 -8
v -13 8 -8
v -19 8 -19
v -14 8 -19
v -20 8 -20
v -13 8 -20
v -19 9 20
v -18 9 20
v -15 9 20
v -14 9 20
v -19 9 14
v -18 9 14
v -15 9 14
v -14 9 14
v -19 11 19
v -18 11 19
v -15 11 19
v -14 11 19
v -19 11 18
v -18 11 18
v -15 11 18
v -14 11 18
v -19 11 17
v -18 11 17
v -15 11 17
v -14 11 17
v -19 11 16
v -18 11 16
v -15 11 16
v -14 11 16
v -19 11 15
v -18 11 15
v -15 11 15
v -14 11 15
v -19 11 14
v -18 11 14
v -15 11 14
v -14 11 14
v -15 11 -2
v -14 11 -2
v -15 11 -7
v -14 11 -7
v -18 12 20
v -15 12 20
v -17 12 19
v -16 12 19
v -17 12 18
v -16 12 18
v -17 12 17
v -16 12 17
v -17 12 16
v -16 12 16
v -17 12 15
v -16 12 15
v -18 12 14
v -17 12 14
v -16 12 14
v -15 12 14
v -18 9 20
v -15 9 20
v -17 9 19
v -16 9 19
v -17 9 18
v -16 9 18
v -17 9 17
v -16 9 17
v -17 9 16
v -16 9 16
v -17 9 15
v -16 9 15
v -18 9 14
v -17 9 14
v -16 9 14
v -15 9 14
v -19 10 19
v -18 10 19
v -15 10 19
v -14 10 19
v -19 10 18
v -18 10 18
v -15 10 18
v -14 10 18
v -19 10 17
v -18 10 17
v -15 10 17
v -14 10 17
v -19 10 16
v -18 10 16
v -15 10 16
v -14 10 16
v -19 10 15
v -18 10 15
v -15 10 15
v -14 10 15
v -19 10 14
v -18 10 14
v -15 10 14
v -14 10 14
v -15 10 -2
v -14 10 -2
v -15 10 -7
v -14 10 -7
v -19 12 20
v -18 12 20
v -15 12 20
v -14 12 20
v -19 12 14
v -18 12 14
v -15 12 14
v -14 12 14
v -18 13 20
v -15 13 20
v -17 13 19
v -16 13 19
v -17 13 18
v -16 13 18
v -17 13 17
v -16 13 17
v -17 13 16
v -16 13 16
v -17 13 15
v -16 13 15
v -19 13 14
v -18 13 14
v -17 13 14
v -16 13 14
v -15 13 14
v -14 13 14
v -18 13 12
v -15 13 12
v -19 13 -8
v -14 13 -8
v -18 14 14
v -17 14 14
v -16 14 14
v -15 14 14
v -17 14 13
v -16 14 13
v -18 14 12
v -15 14 12
v -20 14 -8
v -13 14 -8
v -20 14 -20
v -13 14 -20
v -17 15 14
v -16 15 14
v -17 15 13
v -16 15 13

# faces
f 3/1/1 2/1/1 1/1/1
f 4/1/1 2/1/1 3/1/1
f 8/2/1 6/2/1 5/2/1
f 9/2/1 8/2/1 7/2/1
f 10/2/1 8/2/1 9/2/1
f 11/2/1 8/2/1 10/2/1
f 12/2/1 8/2/1 11/2/1
f 13/2/1 8/2/1 12/2/1
f 14/2/1 6/2/1 8/2/1
f 14/2/1 8/2/1 13/2/1
f 15/2/1 9/2/1 7/2/1
f 16/2/1 11/2/1 10/2/1
f 17/2/1 11/2/1 16/2/1
f 18/2/1 13/2/1 12/2/1
f 19/2/1 13/2/1 18/2/1
f 20/2/1 6/2/1 14/2/1
f 21/2/1 17/2/1 16/2/1
f 21/2/1 20/2/1 19/2/1
f 21/2/1 19/2/1 18/2/1
f 21/2/1 15/2/1 7/2/1
f 21/2/1 18/2/1 17/2/1
f 21/2/1 16/2/1 15/2/1
f 22/2/1 6/2/1 20/2/1
f 22/2/1 20/2/1 21/2/1
f 23/2/1 6/2/1 22/2/1
f 24/2/1 6/2/1 23/2/1
f 29/1/1 26/1/1 25/1/1
f 30/1/1 26/1/1 29/1/1
f 31/2/1 28/2/1 27/2/1
f 32/2/1 28/2/1 31/2/1
f 35/2/1 34/2/1 33/2/1
f 36/2/1 34/2/1 35/2/1
f 38/1/1 37/1/1 36/1/1
f 39/1/1 37/1/1 38/1/1
f 42/1/1 41/1/1 40/1/1
f 43/1/1 41/1/1 42/1/1
f 50/2/1 45/2/1 44/2/1
f 51/2/1 45/2/1 50/2/1
f 52/2/1 47/2/1 46/2/1
f 53/2/1 47/2/1 52/2/1
f 54/2/1 49/2/1 48/2/1
f 55/2/1 49/2/1 54/2/1
f 62/2/1 57/2/1 56/2/1
f 63/2/1 57/2/1 62/2/1
f 64/2/1 59/2/1 58/2/1
f 65/2/1 59/2/1 64/2/1
f 66/2/1 61/2/1 60/2/1
f 67/2/1 61/2/1 66/2/1
f 70/2/1 69/2/1 68/2/1
f 71/2/1 69/2/1 70/2/1
f 72/2/1 69/2/1 71/2/1
f 73/2/1 69/2/1 72/2/1
f 74/2/1 69/2/1 73/2/1
f 75/2/1 69/2/1 74/2/1
f 76/2/1 70/2/1 68/2/1
f 77/2/1 72/2/1 71/2/1
f 78/2/1 72/2/1 77/2/1
f 79/2/1 74/2/1 73/2/1
f 80/2/1 74/2/1 79/2/1
f 82/2/1 78/2/1 77/2/1
f 82/2/1 81/2/1 80/2/1
f 82/2/1 80/2/1 79/2/1
f 82/2/1 79/2/1 78/2/1
f 82/2/1 76/2/1 68/2/1
f 82/2/1 77/2/1 76/2/1
f 83/2/1 81/2/1 82/2/1
f 84/2/2 85/2/2 86/2/2
f 86/2/2 85/2/2 87/2/2
f 87/2/2 85/2/2 88/2/2
f 88/2/2 85/2/2 89/2/2
f 89/2/2 85/2/2 90/2/2
f 90/2/2 85/2/2 91/2/2
f 84/2/2 86/2/2 92/2/2
f 87/2/2 88/2/2 93/2/2
f 93/2/2 88/2/2 94/2/2
f 89/2/2 90/2/2 95/2/2
f 95/2/2 90/2/2 96/2/2
f 93/2/2 94/2/2 98/2/2
f 96/2/2 97/2/2 98/2/2
f 95/2/2 96/2/2 98/2/2
f 94/2/2 95/2/2 98/2/2
f 84/2/2 92/2/2 98/2/2
f 92/2/2 93/2/2 98/2/2
f 98/2/2 97/2/2 99/2/2
f 100/2/2 101/2/2 106/2/2
f 106/2/2 101/2/2 107/2/2
f 102/2/2 103/2/2 108/2/2
f 108/2/2 103/2/2 109/2/2
f 104/2/2 105/2/2 110/2/2
f 110/2/2 105/2/2 111/2/2
f 112/2/2 113/2/2 118/2/2
f 118/2/2 113/2/2 119/2/2
f 114/2/2 115/2/2 120/2/2
f 120/2/2 115/2/2 121/2/2
f 116/2/2 117/2/2 122/2/2
f 122/2/2 117/2/2 123/2/2
f 124/1/2 125/1/2 126/1/2
f 126/1/2 125/1/2 127/1/2
f 128/1/2 129/1/2 132/1/2
f 132/1/2 129/1/2 133/1/2
f 130/2/2 131/2/2 134/2/2
f 134/2/2 131/2/2 135/2/2
f 136/2/2 137/2/2 138/2/2
f 138/2/2 137/2/2 139/2/2
f 140/2/2 141/2/2 142/2/2
f 142/2/2 141/2/2 143/2/2
f 143/1/2 144/1/2 145/1/2
f 145/1/2 144/1/2 146/1/2
f 147/2/2 148/2/2 150/2/2
f 149/2/2 150/2/2 151/2/2
f 151/2/2 150/2/2 152/2/2
f 152/2/2 150/2/2 153/2/2
f 153/2/2 150/2/2 154/2/2
f 154/2/2 150/2/2 155/2/2
f 150/2/2 148/2/2 156/2/2
f 155/2/2 150/2/2 156/2/2
f 156/2/2 148/2/2 157/2/2
f 157/2/2 148/2/2 158/2/2
f 149/2/2 151/2/2 159/2/2
f 152/2/2 153/2/2 160/2/2
f 160/2/2 153/2/2 161/2/2
f 154/2/2 155/2/2 162/2/2
f 162/2/2 155/2/2 163/2/2
f 156/2/2 157/2/2 164/2/2
f 164/2/2 157/2/2 165/2/2
f 158/2/2 148/2/2 166/2/2
f 160/2/2 161/2/2 167/2/2
f 165/2/2 166/2/2 167/2/2
f 164/2/2 165/2/2 167/2/2
f 162/2/2 163/2/2 167/2/2
f 163/2/2 164/2/2 167/2/2
f 149/2/2 159/2/2 167/2/2
f 161/2/2 162/2/2 167/2/2
f 159/2/2 160/2/2 167/2/2
f 167/2/2 166/2/2 168/2/2
f 168/2/2 166/2/2 169/2/2
f 166/2/2 148/2/2 170/2/2
f 169/2/2 166/2/2 170/2/2
f 171/1/2 172/1/2 173/1/2
f 173/1/2 172/1/2 174/1/2
f 178/2/3 176/2/3 175/2/3
f 179/2/3 176/2/3 178/2/3
f 181/2/3 178/2/3 177/2/3
f 182/2/3 178/2/3 181/2/3
f 183/2/3 180/2/3 179/2/3
f 184/2/3 180/2/3 183/2/3
f 185/2/3 183/2/3 182/2/3
f 186/2/3 183/2/3 185/2/3
f 189/2/3 188/2/3 187/2/3
f 190/2/3 188/2/3 189/2/3
f 195/2/3 192/2/3 191/2/3
f 196/2/3 192/2/3 195/2/3
f 197/2/3 194/2/3 193/2/3
f 198/2/3 194/2/3 197/2/3
f 201/2/3 200/2/3 199/2/3
f 202/2/3 200/2/3 201/2/3
f 205/2/3 204/2/3 203/2/3
f 206/2/3 204/2/3 205/2/3
f 211/2/3 208/2/3 207/2/3
f 212/2/3 208/2/3 211/2/3
f 213/2/3 210/2/3 209/2/3
f 214/2/3 210/2/3 213/2/3
f 217/2/3 216/2/3 215/2/3
f 218/2/3 216/2/3 217/2/3
f 225/2/3 220/2/3 219/2/3
f 226/2/3 220/2/3 225/2/3
f 227/2/3 222/2/3 221/2/3
f 228/2/3 222/2/3 227/2/3
f 229/2/3 224/2/3 223/2/3
f 230/2/3 224/2/3 229/2/3
f 233/2/3 228/2/3 227/2/3
f 233/2/3 229/2/3 228/2/3
f 233/2/3 227/2/3 226/2/3
f 234/2/3 229/2/3 233/2/3
f 235/1/3 231/1/3 230/1/3
f 236/1/3 231/1/3 235/1/3
f 238/2/3 234/2/3 233/2/3
f 238/2/3 233/2/3 232/2/3
f 238/2/3 235/2/3 234/2/3
f 239/2/3 235/2/3 238/2/3
f 240/2/3 235/2/3 239/2/3
f 241/1/3 237/1/3 236/1/3
f 241/2/3 235/2/3 240/2/3
f 241/1/3 236/1/3 235/1/3
f 242/1/3 237/1/3 241/1/3
f 243/1/3 237/1/3 242/1/3
f 245/2/3 240/2/3 239/2/3
f 246/2/3 240/2/3 245/2/3
f 247/2/3 240/2/3 246/2/3
f 248/2/3 240/2/3 247/2/3
f 249/1/3 242/1/3 241/1/3
f 250/1/3 242/1/3 249/1/3
f 251/2/3 245/2/3 244/2/3
f 252/2/3 245/2/3 251/2/3
f 253/2/3 247/2/3 246/2/3
f 254/2/3 247/2/3 253/2/3
f 255/2/3 249/2/3 248/2/3
f 256/2/3 249/2/3 255/2/3
f 259/1/3 258/1/3 257/1/3
f 260/1/3 258/1/3 259/1/3
f 263/2/3 262/2/3 261/2/3
f 264/2/3 262/2/3 263/2/3
f 267/1/3 266/1/3 265/1/3
f 268/1/3 266/1/3 267/1/3
f 270/1/3 266/1/3 268/1/3
f 271/1/3 270/1/3 269/1/3
f 272/1/3 266/1/3 270/1/3
f 272/1/3 270/1/3 271/1/3
f 273/2/4 274/2/4 275/2/4
f 275/2/4 274/2/4 276/2/4
f 277/2/4 278/2/4 281/2/4
f 281/2/4 278/2/4 282/2/4
f 279/2/4 280/2/4 283/2/4
f 283/2/4 280/2/4 284/2/4
f 285/2/4 286/2/4 287/2/4
f 287/2/4 286/2/4 288/2/4
f 289/2/4 290/2/4 291/2/4
f 291/2/4 290/2/4 292/2/4
f 293/2/4 294/2/4 297/2/4
f 297/2/4 294/2/4 298/2/4
f 295/2/4 296/2/4 299/2/4
f 299/2/4 296/2/4 300/2/4
f 301/2/4 302/2/4 303/2/4
f 303/2/4 302/2/4 304/2/4
f 305/2/4 306/2/4 307/2/4
f 307/2/4 306/2/4 308/2/4
f 309/2/4 310/2/4 313/2/4
f 313/2/4 310/2/4 314/2/4
f 311/2/4 312/2/4 315/2/4
f 315/2/4 312/2/4 316/2/4
f 317/2/4 318/2/4 319/2/4
f 319/2/4 318/2/4 320/2/4
f 321/1/4 322/1/4 323/1/4
f 323/1/4 322/1/4 324/1/4
f 325/1/4 326/1/4 327/1/4
f 327/1/4 326/1/4 328/1/4
f 329/2/4 330/2/4 331/2/4
f 331/2/4 330/2/4 332/2/4
f 333/1/4 334/1/4 335/1/4
f 335/1/4 334/1/4 336/1/4
f 337/1/4 338/1/4 339/1/4
f 339/1/4 338/1/4 340/1/4
f 343/1/5 342/1/5 341/1/5
f 344/1/5 342/1/5 343/1/5
f 347/2/5 346/2/5 345/2/5
f 348/2/5 346/2/5 347/2/5
f 349/2/5 347/2/5 345/2/5
f 350/2/5 346/2/5 348/2/5
f 351/2/5 349/2/5 345/2/5
f 351/2/5 350/2/5 349/2/5
f 352/2/5 346/2/5 350/2/5
f 352/2/5 350/2/5 351/2/5
f 353/2/5 351/2/5 345/2/5
f 354/2/5 346/2/5 352/2/5
f 355/2/5 353/2/5 345/2/5
f 355/2/5 354/2/5 353/2/5
f 356/2/5 346/2/5 354/2/5
f 356/2/5 354/2/5 355/2/5
f 358/2/5 355/2/5 345/2/5
f 359/2/5 355/2/5 358/2/5
f 360/2/5 346/2/5 356/2/5
f 361/2/5 346/2/5 360/2/5
f 363/2/5 359/2/5 358/2/5
f 363/2/5 362/2/5 361/2/5
f 363/2/5 361/2/5 360/2/5
f 363/2/5 360/2/5 359/2/5
f 363/2/5 358/2/5 357/2/5
f 364/2/5 362/2/5 363/2/5
f 366/2/5 363/2/5 357/2/5
f 367/2/5 363/2/5 366/2/5
f 368/2/5 362/2/5 364/2/5
f 369/2/5 362/2/5 368/2/5
f 371/2/5 367/2/5 366/2/5
f 371/1/5 366/1/5 365/1/5
f 371/2/5 369/2/5 368/2/5
f 371/2/5 368/2/5 367/2/5
f 372/1/5 370/1/5 369/1/5
f 372/2/5 369/2/5 371/2/5
f 373/1/5 371/1/5 365/1/5
f 373/1/5 372/1/5 371/1/5
f 374/1/5 370/1/5 372/1/5
f 374/1/5 372/1/5 373/1/5
f 379/2/5 376/2/5 375/2/5
f 380/2/5 376/2/5 379/2/5
f 381/2/5 378/2/5 377/2/5
f 382/2/5 378/2/5 381/2/5
f 387/2/5 384/2/5 383/2/5
f 388/2/5 384/2/5 387/2/5
f 389/2/5 386/2/5 385/2/5
f 390/2/5 386/2/5 389/2/5
f 395/2/5 392/2/5 391/2/5
f 396/2/5 392/2/5 395/2/5
f 397/2/5 394/2/5 393/2/5
f 398/2/5 394/2/5 397/2/5
f 403/2/5 400/2/5 399/2/5
f 404/2/5 400/2/5 403/2/5
f 405/2/5 402/2/5 401/2/5
f 406/2/5 402/2/5 405/2/5
f 409/2/5 408/2/5 407/2/5
f 410/2/5 408/2/5 409/2/5
f 413/2/5 412/2/5 411/2/5
f 414/2/5 412/2/5 413/2/5
f 415/2/5 413/2/5 411/2/5
f 416/2/5 412/2/5 414/2/5
f 417/2/5 415/2/5 411/2/5
f 417/2/5 416/2/5 415/2/5
f 418/2/5 412/2/5 416/2/5
f 418/2/5 416/2/5 417/2/5
f 419/2/5 417/2/5 411/2/5
f 420/2/5 412/2/5 418/2/5
f 421/2/5 419/2/5 411/2/5
f 421/2/5 420/2/5 419/2/5
f 422/2/5 412/2/5 420/2/5
f 422/2/5 420/2/5 421/2/5
f 423/2/5 421/2/5 411/2/5
f 424/2/5 421/2/5 423/2/5
f 425/2/5 412/2/5 422/2/5
f 426/2/5 412/2/5 425/2/5
f 427/2/6 428/2/6 429/2/6
f 429/2/6 428/2/6 430/2/6
f 427/2/6 429/2/6 431/2/6
f 430/2/6 428/2/6 432/2/6
f 427/2/6 431/2/6 433/2/6
f 431/2/6 432/2/6 433/2/6
f 432/2/6 428/2/6 434/2/6
f 433/2/6 432/2/6 434/2/6
f 427/2/6 433/2/6 435/2/6
f 434/2/6 428/2/6 436/2/6
f 427/2/6 435/2/6 437/2/6
f 435/2/6 436/2/6 437/2/6
f 436/2/6 428/2/6 438/2/6
f 437/2/6 436/2/6 438/2/6
f 427/2/6 437/2/6 439/2/6
f 439/2/6 437/2/6 440/2/6
f 438/2/6 428/2/6 441/2/6
f 441/2/6 428/2/6 442/2/6
f 443/2/6 444/2/6 447/2/6
f 447/2/6 444/2/6 448/2/6
f 445/2/6 446/2/6 449/2/6
f 449/2/6 446/2/6 450/2/6
f 451/2/6 452/2/6 455/2/6
f 455/2/6 452/2/6 456/2/6
f 453/2/6 454/2/6 457/2/6
f 457/2/6 454/2/6 458/2/6
f 459/2/6 460/2/6 463/2/6
f 463/2/6 460/2/6 464/2/6
f 461/2/6 462/2/6 465/2/6
f 465/2/6 462/2/6 466/2/6
f 467/2/6 468/2/6 469/2/6
f 469/2/6 468/2/6 470/2/6
f 471/2/6 472/2/6 475/2/6
f 475/2/6 472/2/6 476/2/6
f 473/2/6 474/2/6 477/2/6
f 477/2/6 474/2/6 478/2/6
f 479/2/6 480/2/6 481/2/6
f 481/2/6 480/2/6 482/2/6
f 479/2/6 481/2/6 483/2/6
f 482/2/6 480/2/6 484/2/6
f 479/2/6 483/2/6 485/2/6
f 483/2/6 484/2/6 485/2/6
f 484/2/6 480/2/6 486/2/6
f 485/2/6 484/2/6 486/2/6
f 479/2/6 485/2/6 487/2/6
f 486/2/6 480/2/6 488/2/6
f 479/2/6 487/2/6 489/2/6
f 487/2/6 488/2/6 489/2/6
f 488/2/6 480/2/6 490/2/6
f 489/2/6 488/2/6 490/2/6
f 479/2/6 489/2/6 492/2/6
f 492/2/6 489/2/6 493/2/6
f 490/2/6 480/2/6 494/2/6
f 494/2/6 480/2/6 495/2/6
f 491/2/6 492/2/6 497/2/6
f 495/2/6 496/2/6 498/2/6
f 491/2/6 497/2/6 499/2/6
f 497/2/6 498/2/6 499/2/6
f 498/2/6 496/2/6 500/2/6
f 499/2/6 498/2/6 500/2/6
f 501/1/6 502/1/6 505/1/6
f 503/1/6 504/1/6 506/1/6
f 501/1/6 505/1/6 507/1/6
f 505/1/6 506/1/6 507/1/6
f 506/1/6 504/1/6 508/1/6
f 507/1/6 506/1/6 508/1/6
f 509/1/6 510/1/6 511/1/6
f 511/1/6 510/1/6 512/1/6
f 513/1/6 514/1/6 515/1/6
f 515/1/6 514/1/6 516/1/6
